<?xml version="1.0" standalone="no"?>
<!DOCTYPE svg PUBLIC "-//W3C//DTD SVG 20010904//EN"
 "http://www.w3.org/TR/2001/REC-SVG-20010904/DTD/svg10.dtd">
<svg version="1.0" xmlns="http://www.w3.org/2000/svg"
 width="2000.000000pt" height="1500.000000pt" viewBox="0 0 2000.000000 1500.000000"
 preserveAspectRatio="xMidYMid meet">

<g transform="translate(0.000000,1500.000000) scale(0.100000,-0.100000)"
fill="#000000" stroke="none">
<path d="M14993 9506 c-100 -32 -186 -107 -226 -195 -17 -36 -21 -66 -22 -136
0 -78 4 -97 28 -146 33 -69 99 -132 175 -167 52 -25 68 -27 177 -27 112 0 124
2 179 29 77 38 141 102 174 174 37 81 37 193 0 273 -36 79 -89 133 -166 171
-60 30 -76 33 -172 35 -68 2 -120 -2 -147 -11z"/>
<path d="M12460 7890 l0 -1400 320 0 320 0 0 442 c0 354 3 440 13 430 6 -7
152 -205 323 -440 l310 -427 403 -3 402 -2 -104 122 c-344 406 -770 915 -774
925 -3 7 191 249 431 538 l436 525 -399 0 -398 0 -312 -420 c-172 -231 -317
-422 -322 -425 -5 -4 -9 296 -9 764 l0 771 -320 0 -320 0 0 -1400z"/>
<path d="M16020 8860 l0 -260 -130 0 -130 0 0 -265 0 -265 130 0 130 0 0 -442
c0 -572 10 -663 86 -815 42 -83 116 -161 204 -215 135 -81 278 -108 583 -108
l207 0 0 274 0 275 -169 3 c-153 3 -172 5 -198 24 -63 46 -63 42 -63 547 l0
457 210 0 210 0 0 265 0 265 -210 0 -210 0 0 260 0 260 -325 0 -325 0 0 -260z"/>
<path d="M3746 8614 c-418 -75 -710 -350 -807 -760 -62 -260 -35 -592 64 -807
110 -238 285 -407 521 -503 218 -89 506 -107 744 -48 295 74 549 289 662 561
15 37 31 83 35 101 l7 32 -340 0 -339 0 -37 -55 c-95 -143 -311 -194 -482
-113 -113 53 -205 182 -220 311 l-7 57 731 0 731 0 7 36 c3 19 4 111 1 202 -4
136 -10 185 -31 266 -101 385 -396 651 -800 721 -110 19 -332 18 -440 -1z
m297 -504 c171 -28 301 -153 315 -302 l5 -58 -408 0 -407 0 6 38 c12 67 73
178 124 223 100 89 224 123 365 99z"/>
<path d="M5985 8616 c-359 -83 -615 -348 -705 -728 -134 -570 72 -1124 497
-1337 199 -99 463 -117 675 -45 130 44 277 148 339 238 13 20 27 36 32 36 4 0
7 -65 7 -145 l0 -145 320 0 320 0 0 1055 0 1055 -320 0 -319 0 -3 -146 -3
-147 -45 57 c-84 106 -232 201 -375 241 -83 23 -338 30 -420 11z m567 -589
c199 -98 294 -297 267 -561 -14 -140 -62 -240 -154 -324 -180 -165 -449 -159
-622 14 -61 60 -117 167 -133 253 -15 79 -12 238 5 304 35 136 123 250 236
307 83 42 120 50 231 46 89 -3 105 -6 170 -39z"/>
<path d="M8525 8615 c-386 -72 -625 -315 -625 -635 0 -169 50 -291 161 -394
111 -102 248 -161 549 -236 160 -40 326 -94 368 -120 71 -43 93 -135 49 -201
-66 -98 -267 -125 -406 -55 -64 33 -128 105 -143 161 l-12 45 -319 0 -319 0 7
-42 c44 -288 250 -510 571 -617 257 -86 605 -78 840 20 147 61 268 158 332
268 97 166 105 391 21 559 -42 82 -159 194 -254 243 -84 44 -264 104 -478 159
-256 66 -325 98 -353 166 -19 45 -18 70 7 120 31 64 99 95 211 96 56 0 103 -5
138 -17 71 -24 142 -93 166 -162 l19 -53 296 0 296 0 -9 57 c-24 154 -99 304
-207 413 -106 108 -239 180 -399 217 -98 22 -404 27 -507 8z"/>
<path d="M9830 8593 c0 -5 192 -463 426 -1020 l426 -1012 -217 -483 c-120
-266 -229 -507 -241 -535 l-24 -53 348 0 347 0 655 1541 c360 848 656 1547
658 1555 3 12 -50 14 -344 12 l-347 -3 -183 -500 c-290 -790 -296 -805 -303
-801 -3 2 -114 297 -246 655 l-240 651 -357 0 c-197 0 -358 -3 -358 -7z"/>
<path d="M14800 7545 l0 -1055 325 0 325 0 0 1055 0 1055 -325 0 -325 0 0
-1055z"/>
</g>
</svg>
